<?xml version="1.0" encoding="utf-8"?>
<!-- Generator: Adobe Illustrator 24.1.2, SVG Export Plug-In . SVG Version: 6.00 Build 0)  -->
<svg version="1.1" id="SvgjsSvg1006" transform="" xmlns:svgjs="http://svgjs.com/svgjs"
	 xmlns="http://www.w3.org/2000/svg" xmlns:xlink="http://www.w3.org/1999/xlink" x="0px" y="0px" viewBox="0 0 5150.4 3058.9"
	 style="enable-background:new 0 0 5150.4 3058.9;" xml:space="preserve">
<style type="text/css">
	.st0{fill:#18667C;}
	.st1{fill:#0E0E0E;}
</style>
<g id="SvgjsG1009" transform="rotate(0 104.328125 39.6328125)">
	<g>
		<path class="st0" d="M1512.6,1900.4l420.9-660.8c16.9-26.5,47.3-40.9,78.6-37.3c31.2,3.6,57.5,24.8,67.9,54.4l78.7,226.7
			l515-778.5c15.4-23.4,40.5-37.6,69.8-36.7c28,0.6,53.9,15.4,68.4,39.3L3566,1948.1c0.9-1.3,2.1-2.2,3-3.5
			c131.8-199,201.5-431,201.5-670.6c0-670.6-545.6-1216.2-1216.3-1216.2S1338,603.5,1338,1274.1c0,217.5,58.1,431,168.1,617.4
			C1508,1894.8,1510.4,1897.5,1512.6,1900.4z"/>
	</g>
</g>
<g id="SvgjsG1011" transform="rotate(0 104.828125 105.2734375)">
	<path class="st1" d="M306.6,2801.7v-580.4h150.5v563.2l0,0c0,94.6-44.4,141.9-133.3,141.9l0,0H199.5l0,0
		c-88.9,0-133.3-47.3-133.3-141.9l0,0v-86.8h142.9v104l0,0c0,5.7,2,10.7,6,15l0,0l0,0c3.8,4.5,8.6,6.7,14.3,6.7l0,0h57l0,0
		c5.7,0,10.6-2.2,14.5-6.7l0,0l0,0C304.7,2812.5,306.6,2807.4,306.6,2801.7L306.6,2801.7z M954.8,2352.2L954.8,2352.2v432.3l0,0
		c0,94.6-44.4,141.9-133.1,141.9l0,0H679.1l0,0c-88.7,0-133.1-47.3-133.1-141.9l0,0v-432.3l0,0c0-94.4,44.4-141.6,133.1-141.6l0,0
		h142.6l0,0C910.4,2210.6,954.8,2257.8,954.8,2352.2z M804.6,2801.7L804.6,2801.7v-467.8l0,0c0-5.7-1.9-10.7-5.7-15l0,0l0,0
		c-4-4.3-8.8-6.4-14.5-6.4l0,0h-67.5l0,0c-5.7,0-10.6,2.1-14.5,6.4l0,0l0,0c-4,4.3-6,9.3-6,15l0,0v467.8l0,0c0,5.7,2,10.7,6,15l0,0
		l0,0c4,4.5,8.8,6.7,14.5,6.7l0,0h67.5l0,0c5.7,0,10.6-2.2,14.5-6.7l0,0l0,0C802.7,2812.5,804.6,2807.4,804.6,2801.7z
		 M1334.9,2642.9h-119.2v272.5h-150.2v-694.1h150.2V2512h119.2v-290.7h150v694.1h-150V2642.9z M1990.5,2352.2v563.2h-150.2v-576.1
		l0,0c0-5.7-2-10.7-6-15l0,0l0,0c-3.8-4.3-8.6-6.4-14.3-6.4l0,0h-58.2l0,0c-5.7,0-10.5,2.1-14.3,6.4l0,0l0,0c-4,4.3-6,9.3-6,15l0,0
		v576.1h-150.2v-563.2l0,0c0-94.4,44.4-141.6,133.1-141.6l0,0h133.1l0,0C1946.2,2210.6,1990.5,2257.8,1990.5,2352.2L1990.5,2352.2z
		 M2484.2,2743.8l80.4-522.4h133.3l80.4,522.4l60.1-522.4h146l-112.6,694.1H2701l-69.6-425.9l-69.9,425.9H2391l-112.8-694.1h146
		L2484.2,2743.8z M3066.8,2221.3h150.5v694.1h-150.5V2221.3z M3401.6,2348.9H3289v-127.6h375.6v127.6h-112.8v566.6h-150.2V2348.9z
		 M4002.6,2642.9h-119v272.5h-150.2v-694.1h150.2V2512h119v-290.7h150.2v694.1h-150.2L4002.6,2642.9L4002.6,2642.9z M4410.6,2624.8
		V2791h166.2v124.5h-316.7v-694.1h316.7v122.3h-166.2v163.1h155.5v118H4410.6z M4924.6,2221.3h141.7L4917,2662.4v253h-150.2v-253
		l-149.1-441.1h141.7l82.5,289.7L4924.6,2221.3z"/>
</g>
</svg>
